<svg width="77" height="131" viewBox="0 0 77 131" fill="none" xmlns="http://www.w3.org/2000/svg">
<path d="M37.3748 111.723L38.3816 130.525L39.3884 111.723C51.4709 106.445 75.4345 93.3166 74.629 83.0249C73.8235 72.7332 48.7859 88.6326 38.3815 97.8687C27.9772 88.6326 2.93972 72.7332 2.13422 83.0249C1.32872 93.3166 25.2923 106.445 37.3748 111.723Z" stroke="black" stroke-width="3.22375"/>
<path d="M10.1891 59.2749C9.38357 69.5666 31.3333 79.0666 38.3815 83.0249C45.4298 79.0666 67.3796 69.5666 66.5741 59.2749C65.7686 48.9832 44.4229 59.275 38.3815 65.2125C32.3402 59.275 10.9946 48.9832 10.1891 59.2749Z" stroke="black" stroke-width="3.22375"/>
<path d="M16.2303 30.577C15.4248 40.8687 31.3333 47.4 38.3815 51.3583C45.4298 47.4 61.3384 40.8687 60.5329 30.577C59.7274 20.2854 44.4229 33.5458 38.3815 39.4833C32.3402 33.5458 17.0358 20.2854 16.2303 30.577Z" stroke="black" stroke-width="3.22375"/>
<path d="M38.3815 25.6291C34.0184 18.3722 27.5753 1.87907 37.3747 1.87909C48.4503 1.87911 42.0734 17.0527 38.3815 25.6291Z" stroke="black" stroke-width="3.22375"/>
</svg>
